<?xml version="1.0" standalone="no"?>
<!DOCTYPE svg PUBLIC "-//W3C//DTD SVG 20010904//EN"
 "http://www.w3.org/TR/2001/REC-SVG-20010904/DTD/svg10.dtd">
<svg version="1.0" xmlns="http://www.w3.org/2000/svg"
 width="260.000000pt" height="260.000000pt" viewBox="0 0 260.000000 260.000000"
 preserveAspectRatio="xMidYMid meet">
<metadata>
Created by potrace 1.11, written by Peter Selinger 2001-2013
</metadata>
<g transform="translate(0.000000,260.000000) scale(0.100000,-0.100000)"
fill="#000000" stroke="none">
<path d="M426 2563 c-3 -10 -10 -49 -16 -88 -6 -38 -29 -180 -51 -315 -67
-410 -125 -769 -179 -1105 -28 -176 -76 -468 -105 -650 -30 -181 -55 -343 -57
-360 l-3 -30 345 0 c296 1 354 3 410 18 124 34 194 97 254 229 53 115 69 196
225 1158 119 733 125 804 75 952 -23 70 -101 149 -169 171 -84 27 -208 37
-472 37 -231 0 -252 -1 -257 -17z m452 -449 c18 -12 22 -25 22 -70 0 -53 -5
-89 -56 -404 -14 -85 -38 -238 -55 -340 -118 -732 -125 -764 -172 -808 -12
-11 -37 -23 -54 -27 -29 -6 -33 -4 -33 14 0 19 22 161 100 636 16 99 59 362
95 585 36 223 67 411 70 418 6 17 56 15 83 -4z"/>
<path d="M1590 2576 c0 -3 -25 -157 -55 -343 -30 -186 -71 -435 -90 -553 -103
-636 -126 -776 -144 -890 -11 -69 -43 -264 -71 -433 -27 -169 -50 -317 -50
-328 0 -19 6 -19 217 -17 l217 3 8 45 c9 50 45 275 113 695 25 154 48 292 51
307 5 27 8 28 65 28 32 0 59 -3 59 -6 0 -3 -16 -103 -35 -222 -20 -119 -47
-287 -61 -372 -14 -85 -36 -224 -50 -308 -13 -84 -22 -157 -19 -163 8 -11 422
-12 429 -1 3 5 21 108 41 228 19 120 54 332 76 469 22 138 67 412 99 610 32
198 77 473 99 610 22 138 54 333 71 435 16 102 30 191 30 198 0 9 -50 12 -218
12 l-219 0 -48 -297 c-26 -164 -60 -368 -74 -453 l-26 -155 -57 -3 c-53 -3
-58 -1 -58 17 0 20 16 122 100 634 22 136 40 249 40 252 0 3 -99 5 -220 5
-121 0 -220 -2 -220 -4z"/>
</g>
</svg>
